<svg width="16" height="16" viewBox="0 0 16 16" fill="none" xmlns="http://www.w3.org/2000/svg">
<path d="M13.9618 11.2236C13.5243 8.59102 12.1621 6.63072 10.978 5.47929C10.6334 5.14424 10.4611 4.97671 10.0805 4.82167C9.69994 4.66663 9.3728 4.66663 8.71852 4.66663H7.28148C6.6272 4.66663 6.30006 4.66663 5.91948 4.82167C5.53889 4.97671 5.3666 5.14424 5.02203 5.47929C3.83788 6.63072 2.47574 8.59102 2.03818 11.2236C1.71262 13.1822 3.51951 14.6666 5.53888 14.6666H10.4611C12.4805 14.6666 14.2874 13.1822 13.9618 11.2236Z" stroke="#010101" stroke-width="1.3" stroke-linecap="round"/>
<path d="M4.83758 2.96183C4.70005 2.76164 4.50069 2.48991 4.9125 2.42795C5.33578 2.36426 5.77531 2.65401 6.20554 2.64806C6.59475 2.64267 6.79304 2.47005 7.00578 2.22357C7.22979 1.96404 7.57665 1.33325 7.99984 1.33325C8.42302 1.33325 8.76988 1.96404 8.9939 2.22357C9.20663 2.47005 9.40492 2.64267 9.79414 2.64806C10.2244 2.65401 10.6639 2.36426 11.0872 2.42795C11.499 2.48991 11.2996 2.76164 11.1621 2.96183L10.5402 3.86701C10.2742 4.25423 10.1412 4.44783 9.8628 4.55721C9.58444 4.66658 9.22473 4.66659 8.5053 4.66659H7.49437C6.77495 4.66659 6.41523 4.66658 6.13687 4.55721C5.85851 4.44783 5.7255 4.25423 5.45947 3.86701L4.83758 2.96183Z" stroke="#010101" stroke-width="1.3"/>
</svg>
