<svg width="16" height="16" viewBox="0 0 16 16" fill="none" xmlns="http://www.w3.org/2000/svg">
<path d="M14 9.25521L13.9999 6.08537C13.9995 5.32851 13.9994 4.95008 13.8153 4.63279C13.6313 4.3155 13.3029 4.13021 12.6461 3.75963L9.29601 1.86939C8.66253 1.51196 8.34579 1.33325 8 1.33325C7.65421 1.33325 7.33747 1.51197 6.70399 1.86939L3.35387 3.75963C2.69708 4.13021 2.36868 4.3155 2.18466 4.63279C2.00064 4.95008 2.00046 5.32851 2.00009 6.08537L2 9.25521C2 11.8062 2 13.0816 2.78105 13.8741C3.5621 14.6666 4.81918 14.6666 7.33333 14.6666H8.66667C11.1808 14.6666 12.4379 14.6666 13.219 13.8741C14 13.0816 14 11.8062 14 9.25521Z" stroke="#010101" stroke-width="1.3" stroke-linecap="round"/>
<path d="M6.66683 8.66667H5.3335M10.6668 8.66667H9.3335M6.66683 6H5.3335M6.66683 11.3333H5.3335M10.6668 6H9.3335M10.6668 11.3333H9.3335" stroke="#010101" stroke-width="1.3" stroke-linecap="round"/>
</svg>
