<svg width="16" height="16" viewBox="0 0 16 16" fill="none" xmlns="http://www.w3.org/2000/svg">
<path d="M10.5778 2.52027C11.1954 2.02125 11.8872 1.99096 12.643 2.00156C13.0339 2.00704 13.2293 2.00978 13.3861 2.07059C13.6349 2.16706 13.8329 2.36509 13.9294 2.61387C13.9902 2.77067 13.993 2.96613 13.9984 3.35705C14.009 4.11284 13.9787 4.80458 13.4797 5.42217C13.0595 5.94225 12.3373 6.21401 11.9897 6.78804C11.7244 7.22634 11.848 7.6802 11.962 8.14729L12.8152 11.6442C12.9852 12.341 12.8559 12.7877 12.3686 13.275C12.1093 13.5342 11.8937 13.521 11.6834 13.186L9.10846 9.08326L7.87875 10.0607C7.43287 10.4152 7.20993 10.5924 7.09277 10.8418C6.81839 11.4259 6.99261 12.3031 7.00149 12.9364C7.0064 13.2864 6.70392 13.9762 6.27594 13.9995C6.01171 14.0139 5.92188 13.6979 5.83654 13.5039L5.01489 11.6363C4.8184 11.1897 4.81035 11.1816 4.36371 10.9851L2.4961 10.1635C2.30212 10.0781 1.98609 9.98829 2.00047 9.72406C2.02377 9.29608 2.71357 8.9936 3.06357 8.99851C3.69688 9.00739 4.57415 9.18161 5.15822 8.90723C5.40761 8.79007 5.58483 8.56713 5.93925 8.12125L6.91674 6.89155L2.81402 4.31659C2.47896 4.1063 2.46582 3.89065 2.72504 3.63143C3.21233 3.14413 3.65901 3.01476 4.35585 3.18479L7.85271 4.03802C8.31979 4.15199 8.77366 4.27562 9.21196 4.01027C9.78599 3.66274 10.0578 2.94049 10.5778 2.52027Z" stroke="#010101" stroke-width="1.3" stroke-linecap="round" stroke-linejoin="round"/>
</svg>
