<svg width="16" height="16" viewBox="0 0 16 16" fill="none" xmlns="http://www.w3.org/2000/svg">
<path d="M3.3335 5.99992C3.3335 3.80003 3.3335 2.70009 4.01691 2.01667C4.70033 1.33325 5.80027 1.33325 8.00016 1.33325C10.2001 1.33325 11.3 1.33325 11.9834 2.01667C12.6668 2.70009 12.6668 3.80003 12.6668 5.99992V9.99992C12.6668 12.1998 12.6668 13.2998 11.9834 13.9832C11.3 14.6666 10.2001 14.6666 8.00016 14.6666C5.80027 14.6666 4.70033 14.6666 4.01691 13.9832C3.3335 13.2998 3.3335 12.1998 3.3335 9.99992V5.99992Z" stroke="#010101" stroke-width="1.3" stroke-linecap="round"/>
<path d="M7.3335 12.6666H8.66683" stroke="#010101" stroke-width="1.3" stroke-linecap="round" stroke-linejoin="round"/>
<path d="M6 1.33325L6.05934 1.68926C6.18792 2.46078 6.25221 2.84654 6.51679 3.08128C6.79278 3.32615 7.1841 3.33325 8 3.33325C8.8159 3.33325 9.20721 3.32615 9.48321 3.08128C9.74779 2.84654 9.81208 2.46078 9.94067 1.68926L10 1.33325" stroke="#010101" stroke-width="1.3" stroke-linejoin="round"/>
</svg>
