<svg width="16" height="16" viewBox="0 0 16 16" fill="none" xmlns="http://www.w3.org/2000/svg">
<path d="M10 10C10 10.5523 10.4477 11 11 11C11.5523 11 12 10.5523 12 10C12 9.44772 11.5523 9 11 9C10.4477 9 10 9.44772 10 10Z" stroke="#010101" stroke-width="1.3"/>
<path d="M10.0025 5.20175C6.38413 4.95102 3.40313 4.4141 2 3.99988V10.0408C2 11.3704 2 12.0352 2.41305 12.5774C2.82611 13.1196 3.39282 13.2728 4.52625 13.579C6.35748 14.0738 8.28233 14.3685 10.0071 14.5371C11.7946 14.7117 12.6884 14.799 13.3442 14.1997C14 13.6004 14 12.6376 14 10.7121V9.36962C14 7.4997 14 6.56474 13.462 5.98447C12.9239 5.40419 11.9501 5.33671 10.0025 5.20175Z" stroke="#010101" stroke-width="1.3" stroke-linecap="round" stroke-linejoin="round"/>
<path d="M11.7505 5.33337C12.0023 4.38453 12.2302 2.65885 11.5513 1.80199C11.121 1.25889 10.4815 1.31107 9.85452 1.36621C6.5586 1.65608 4.23029 2.24491 2.92868 2.64496C2.36899 2.81697 2 3.36352 2 3.97367" stroke="#010101" stroke-width="1.3" stroke-linejoin="round"/>
</svg>
